<svg xmlns="http://www.w3.org/2000/svg" width="1200" height="700" viewBox="0 0 1200 700">
  <defs>
    <linearGradient id="bg2" x1="0" y1="0" x2="0" y2="1">
      <stop offset="0%" stop-color="#f2f6fb"/>
      <stop offset="100%" stop-color="#d5dee9"/>
    </linearGradient>
  </defs>
  <rect width="1200" height="700" fill="url(#bg2)"/>
  <rect x="0" y="460" width="1200" height="240" fill="#c2ccd9"/>
  <rect x="120" y="90" width="960" height="330" rx="12" fill="#ffffff" stroke="#c6d1df"/>
  <rect x="160" y="130" width="210" height="250" fill="#eef3f8"/>
  <rect x="400" y="130" width="210" height="250" fill="#eef3f8"/>
  <rect x="640" y="130" width="210" height="250" fill="#eef3f8"/>
  <rect x="880" y="130" width="160" height="250" fill="#eef3f8"/>
  <rect x="160" y="490" width="880" height="130" rx="14" fill="#374d69"/>
  <rect x="200" y="525" width="240" height="60" rx="8" fill="#8fc0e9"/>
  <rect x="480" y="525" width="240" height="60" rx="8" fill="#8fc0e9"/>
  <rect x="760" y="525" width="240" height="60" rx="8" fill="#8fc0e9"/>
  <circle cx="220" cy="460" r="14" fill="#607b9c"/>
  <circle cx="360" cy="460" r="14" fill="#607b9c"/>
  <circle cx="500" cy="460" r="14" fill="#607b9c"/>
  <circle cx="640" cy="460" r="14" fill="#607b9c"/>
  <circle cx="780" cy="460" r="14" fill="#607b9c"/>
  <circle cx="920" cy="460" r="14" fill="#607b9c"/>
</svg>
