<svg xmlns="http://www.w3.org/2000/svg" width="1200" height="700" viewBox="0 0 1200 700">
  <defs>
    <linearGradient id="bg1" x1="0" y1="0" x2="1" y2="1">
      <stop offset="0%" stop-color="#e8edf4"/>
      <stop offset="100%" stop-color="#cfd8e4"/>
    </linearGradient>
    <linearGradient id="floor1" x1="0" y1="0" x2="1" y2="0">
      <stop offset="0%" stop-color="#c8d0dc"/>
      <stop offset="100%" stop-color="#b6bfcd"/>
    </linearGradient>
  </defs>
  <rect width="1200" height="700" fill="url(#bg1)"/>
  <rect y="420" width="1200" height="280" fill="url(#floor1)"/>
  <rect x="90" y="120" width="310" height="270" fill="#f3f7fb" stroke="#b7c2d1"/>
  <rect x="460" y="120" width="290" height="270" fill="#f3f7fb" stroke="#b7c2d1"/>
  <rect x="810" y="120" width="300" height="270" fill="#f3f7fb" stroke="#b7c2d1"/>
  <rect x="260" y="360" width="680" height="48" fill="#5f6d80"/>
  <rect x="280" y="334" width="200" height="40" rx="8" fill="#2e3f57"/>
  <rect x="500" y="334" width="200" height="40" rx="8" fill="#2e3f57"/>
  <rect x="720" y="334" width="200" height="40" rx="8" fill="#2e3f57"/>
  <rect x="170" y="470" width="220" height="110" rx="18" fill="#1f2f45"/>
  <rect x="470" y="470" width="220" height="110" rx="18" fill="#1f2f45"/>
  <rect x="770" y="470" width="220" height="110" rx="18" fill="#1f2f45"/>
  <rect x="220" y="500" width="120" height="50" rx="6" fill="#74a9d8"/>
  <rect x="520" y="500" width="120" height="50" rx="6" fill="#74a9d8"/>
  <rect x="820" y="500" width="120" height="50" rx="6" fill="#74a9d8"/>
</svg>
