<svg xmlns="http://www.w3.org/2000/svg" width="1200" height="700" viewBox="0 0 1200 700">
  <defs>
    <linearGradient id="room" x1="0" y1="0" x2="1" y2="1">
      <stop offset="0%" stop-color="#dce3ea"/>
      <stop offset="100%" stop-color="#b9c3d0"/>
    </linearGradient>
  </defs>
  <rect width="1200" height="700" fill="url(#room)"/>
  <rect x="70" y="80" width="1060" height="120" fill="#eff4f9" stroke="#c2ccda"/>
  <rect x="120" y="180" width="960" height="80" fill="#e9eff6"/>
  <rect x="140" y="300" width="920" height="290" rx="20" fill="#d3dbe5"/>
  <rect x="190" y="360" width="820" height="160" rx="16" fill="#f5f8fb"/>
  <rect x="250" y="420" width="240" height="24" rx="6" fill="#8da8c5"/>
  <rect x="250" y="456" width="190" height="24" rx="6" fill="#8da8c5"/>
  <rect x="560" y="392" width="230" height="150" rx="14" fill="#2f4765"/>
  <rect x="590" y="418" width="170" height="90" rx="8" fill="#74a9d8"/>
  <rect x="860" y="380" width="120" height="190" rx="10" fill="#8dbf8f"/>
  <circle cx="920" cy="350" r="48" fill="#7fb284"/>
  <circle cx="880" cy="332" r="36" fill="#94c595"/>
  <circle cx="956" cy="334" r="34" fill="#94c595"/>
</svg>
